<?xml version="1.0" encoding="UTF-8"?><svg id="Camada_1" xmlns="http://www.w3.org/2000/svg" viewBox="0 0 1080 1080"><defs><style>.cls-1{fill:#fce9dc;}</style></defs><path class="cls-1" d="M636.18,713.83v3.79h-122.29v-3.79c9.41,0,17.76-8.82,25.08-26.51,7.3-17.66,10.98-41.02,10.98-70.08,0-66.93-1.84-162.25-5.49-286.01-3.68-123.75-6.03-205.81-7.06-246.24v-1.9l-211.65,634.54-7.84-18.95L106.26,174l-9.41,473.54c0,44.22,8.35,66.29,25.09,66.29v3.79H56.1v-3.79h1.57c17.76,0,26.65-21.45,26.65-64.4l10.98-505.73L56.1,47.1h54.87l232.03,575.82L535.84,50.88v-3.79h84.66v3.79c-9.41,0-17.51,4.12-24.3,12.32-6.81,8.23-9.67,18-8.62,29.36l12.54,526.56c1.03,29.07,4.95,52.1,11.76,69.14,6.79,17.04,14.35,25.57,22.73,25.57h1.57Z"/><path class="cls-1" d="M584.66,420.31c-6.26.35-12.07.88-17.72,1.52l-.35,3.59c5.76-.69,11.71-1.23,18.16-1.58l-.09-3.53Z"/><path class="cls-1" d="M975.92,541.05c-30.15-54.68-64.95-99.95-104.42-135.84-39.5-35.87-89.87-74.98-151.17-117.33-46.76-31.74-80.53-57.33-101.3-76.75-20.78-19.4-31.16-39.7-31.16-60.85,0-36.45,12.7-67.05,38.18-91.74,25.44-24.7,54.79-37.06,88.05-37.06,28.05,0,55.32,5.61,81.82,16.77,26.49,11.19,46.49,26.77,60.01,46.74,8.3,11.78,18.16,29.99,29.6,54.7h6.23l-10.91-67.04-1.56-10.59c-1.05-1.15-2.61-2.35-4.67-3.52-2.09-1.16-3.66-2.35-4.68-3.54-3.11-2.33-13-8.21-29.6-17.64-39.49-18.79-78.97-28.23-118.45-28.23s-71.68,8.83-99.74,26.46c-18.71,10.6-35.6,26.77-50.65,48.53-15.07,21.76-22.61,49.68-22.61,83.79,0,31.76,12.99,60.87,38.97,87.32,25.95,26.47,66.47,59.72,121.56,99.69,54.01,38.81,98.19,73.53,132.47,104.09,34.29,30.6,63.63,67.92,88.05,112.03,24.39,44.1,36.62,94.39,36.62,150.85s-11.69,113.22-35.06,166.72c-23.38,53.51-59.49,97.3-108.31,131.44-48.84,34.09-108.58,51.16-179.22,51.16-56.1,0-108.59-13.23-157.41-39.69-48.83-26.47-87.79-64.4-116.89-113.79-29.07-49.4-43.64-106.44-43.64-171.15,0-41.16,7.28-82.03,21.82-122.6,4.62-12.86,7.07-25.3,12.91-37.16l-.76-.57c-5.66,11.53-10.8,23.48-15.27,35.95-14.54,40.57-21.82,82.03-21.82,124.37,0,62.36,13.78,118.81,41.3,169.38,27.54,50.55,65.46,89.97,113.77,118.2,48.31,28.23,103.63,42.34,165.98,42.34,78.94,0,147-17.94,204.16-53.81,57.13-35.88,100.25-80.58,129.35-134.08,29.08-53.5,43.63-106.13,43.63-157.9,0-71.72-15.07-134.95-45.19-189.66"/></svg>